# File created by Blade
# Date/Time:  Wed Apr 08 17:24:25 2015
#---------------------------------------------------------
:version 1.10
:name HOM
:units
  mass 1.0
  length 1.000000
  angle deg
:documentation
     Acclaim Skeleton File
:root
   axis xyz
   order TX TY TZ RX RY RZ
   position 0.000000 0.000000 0.000000
   orientation 0 0 0
:bonedata
   begin
      id 1
      name Spine_dum
      direction 0.000000 1.000000 0.000000
      length 5.893853
      axis 0.0 0.0 0.0 xyz
   end
   begin
      id 2
      name LeftUpLeg_dum
      direction 1.000000 0.000000 0.000000
      length 3.697939
      axis 0.0 0.0 0.0 xyz
   end
   begin
      id 3
      name RightUpLeg_dum
      direction -1.000000 0.000000 0.000000
      length 3.697939
      axis 0.0 0.0 0.0 xyz
   end
   begin
      id 4
      name Spine
      direction 0.000000 1.000000 0.000000
      length 0.000000
      axis 0.0 0.0 0.0 xyz
      dof rx ry rz
   end
   begin
      id 5
      name Spine_dum1
      direction 0.000000 1.000000 0.000000
      length 16.447146
      axis 0.0 0.0 0.0 xyz
   end
   begin
      id 6
      name Spine_dum2
      direction 0.000000 1.000000 0.000000
      length 10.900383
      axis 0.0 0.0 0.0 xyz
   end
   begin
      id 7
      name Spine_dum3
      direction 0.000000 1.000000 0.000000
      length 10.900383
      axis 0.0 0.0 0.0 xyz
   end
   begin
      id 8
      name Head
      direction 0.000000 1.000000 0.000000
      length 4.527550
      axis 0.0 0.0 0.0 xyz
      dof rx ry rz
   end
   begin
      id 9
      name LeftShoulder
      direction 1.000000 0.000000 0.000000
      length 8.219464
      axis 0.0 0.0 -90.0 xyz
      dof rx ry rz
   end
   begin
      id 10
      name LeftArm
      direction 1.000000 0.000000 0.000000
      length 11.094937
      axis 0.0 0.0 -90.0 xyz
      dof rx ry rz
   end
   begin
      id 11
      name LeftForeArm
      direction 1.000000 0.000000 0.000000
      length 9.103875
      axis 0.0 0.0 -90.0 xyz
      dof ry rz rx
   end
   begin
      id 12
      name LeftHand
      direction 0.000000 0.000000 0.000000
      length 0.000000
      axis 0.0 0.0 -90.0 xyz
      dof rx ry rz
   end
   begin
      id 13
      name LeftHand_dum1
      direction 0.000000 0.000000 0.000000
      length 0.000000
      axis 0.0 0.0 -90.0 xyz
   end
   begin
      id 14
      name LeftHand_dum2
      direction 1.000000 0.000000 0.000000
      length 3.937000
      axis 0.0 0.0 -90.0 xyz
   end
   begin
      id 15
      name LeftHandThumb1
      direction 0.000000 0.000000 1.000000
      length 3.937000
      axis 0.0 0.0 -90.0 xyz
      dof rx rz ry
   end
   begin
      id 16
      name RightShoulder
      direction -1.000000 0.000000 0.000000
      length 8.219464
      axis 0.0 0.0 90.0 xyz
      dof rx ry rz
   end
   begin
      id 17
      name RightArm
      direction -1.000000 0.000000 0.000000
      length 11.094937
      axis 0.0 0.0 90.0 xyz
      dof rx ry rz
   end
   begin
      id 18
      name RightForeArm
      direction -1.000000 0.000000 0.000000
      length 9.103875
      axis 0.0 0.0 90.0 xyz
      dof ry rz rx
   end
   begin
      id 19
      name RightHand
      direction 0.000000 0.000000 0.000000
      length 0.000000
      axis 0.0 0.0 90.0 xyz
      dof rx ry rz
   end
   begin
      id 20
      name RightHand_dum1
      direction 0.000000 0.000000 0.000000
      length 0.000000
      axis 0.0 0.0 90.0 xyz
   end
   begin
      id 21
      name RightHand_dum2
      direction -1.000000 0.000000 0.000000
      length 3.937000
      axis 0.0 0.0 90.0 xyz
   end
   begin
      id 22
      name RightHandThumb1
      direction 0.000000 0.000000 1.000000
      length 3.937000
      axis 0.0 0.0 90.0 xyz
      dof rx rz ry
   end
   begin
      id 23
      name LeftUpLeg
      direction 0.000000 -1.000000 0.000000
      length 16.181467
      axis 0.0 0.0 0.0 xyz
      dof rx ry rz
   end
   begin
      id 24
      name LeftLeg
      direction 0.000000 -1.000000 0.000000
      length 16.501392
      axis 0.0 0.0 0.0 xyz
      dof rx ry rz
   end
   begin
      id 25
      name LeftFoot
      direction 0.000000 -0.258819 0.965926
      length 6.408245
      axis 15.0 0.0 0.0 xyz
      dof rx ry rz
   end
   begin
      id 26
      name LeftToeBase
      direction 0.000000 0.000000 1.000000
      length 2.952750
      axis 0.0 0.0 0.0 xyz
      dof rx ry rz
   end
   begin
      id 27
      name RightUpLeg
      direction 0.000000 -1.000000 0.000000
      length 16.181467
      axis 0.0 0.0 0.0 xyz
      dof rx ry rz
   end
   begin
      id 28
      name RightLeg
      direction 0.000000 -1.000000 0.000000
      length 16.501392
      axis 0.0 0.0 0.0 xyz
      dof rx ry rz
   end
   begin
      id 29
      name RightFoot
      direction 0.000000 -0.258819 0.965926
      length 6.408245
      axis 15.0 0.0 0.0 xyz
      dof rx ry rz
   end
   begin
      id 30
      name RightToeBase
      direction 0.000000 0.000000 1.000000
      length 2.952750
      axis 0.0 0.0 0.0 xyz
      dof rx ry rz
   end
:hierarchy
   begin
      root Spine_dum LeftUpLeg_dum RightUpLeg_dum
      Spine_dum Spine
      LeftUpLeg_dum LeftUpLeg
      RightUpLeg_dum RightUpLeg
      Spine Spine_dum1 Spine_dum2 Spine_dum3
      Spine_dum1 Head
      Spine_dum2 LeftShoulder
      Spine_dum3 RightShoulder
      LeftShoulder LeftArm
      LeftArm LeftForeArm
      LeftForeArm LeftHand
      LeftHand LeftHand_dum1 LeftHand_dum2
      LeftHand_dum1 LeftHandThumb1
      RightShoulder RightArm
      RightArm RightForeArm
      RightForeArm RightHand
      RightHand RightHand_dum1 RightHand_dum2
      RightHand_dum1 RightHandThumb1
      LeftUpLeg LeftLeg
      LeftLeg LeftFoot
      LeftFoot LeftToeBase
      RightUpLeg RightLeg
      RightLeg RightFoot
      RightFoot RightToeBase
   end

# File created by Blade
# Date/Time:  Wed Apr 08 17:24:36 2015
# Frame Rate: 120.000 fps
#------------------------------------------------------
:FULLY-SPECIFIED
:DEGREES
527
root 7.529887 36.508640 2.754867 -19.008348 -60.381004 -25.065651
Spine 52.220522 -4.775600 10.188456
Head -11.870457 17.711511 -1.675434
LeftShoulder 10.718021 6.371396 19.618356
LeftArm 70.765799 38.893547 -52.913762
LeftForeArm -12.497583 0.000000 34.784514
LeftHand -10.427075 -0.000000 -10.353385
LeftHandThumb1 -26.253704 0.000000 33.147579
RightShoulder -5.530269 -42.873458 -2.318863
RightArm 74.739094 -9.613749 37.604933
RightForeArm 55.375761 -0.000000 26.109631
RightHand -0.676310 -0.000000 28.009164
RightHandThumb1 -24.326973 -0.000000 -32.862282
LeftUpLeg 38.664805 16.061519 23.462465
LeftLeg 22.175934 -0.000000 -0.000000
LeftFoot -19.261512 -2.716715 -1.887997
LeftToeBase 6.506422 -0.000000 -0.000000
RightUpLeg -84.509931 -8.429602 18.708198
RightLeg 147.472782 -0.000000 -0.000000
RightFoot 13.510830 -4.093085 14.481780
RightToeBase -5.530960 -0.000000 0.000000
528
root 7.524590 36.515043 2.756987 -18.747964 -60.569388 -25.412951
Spine 52.317071 -4.854096 10.347485
Head -11.771001 17.715914 -1.600651
LeftShoulder 10.765895 6.326492 19.710838
LeftArm 70.906733 38.812468 -52.917175
LeftForeArm -12.557556 -0.000000 34.500145
LeftHand -10.207339 0.000000 -10.494487
LeftHandThumb1 -26.253704 0.000000 33.147579
RightShoulder -5.575690 -42.977105 -2.173428
RightArm 74.734009 -9.478220 37.809252
RightForeArm 55.242278 -0.000000 26.309789
RightHand -0.463972 -0.000000 27.542005
RightHandThumb1 -24.326973 -0.000000 -32.862282
LeftUpLeg 38.764324 16.043206 23.590936
LeftLeg 22.145758 -0.000000 -0.000000
LeftFoot -19.211813 -2.576637 -1.811692
LeftToeBase 6.875480 -0.000000 -0.000000
RightUpLeg -84.345796 -8.439399 18.714444
RightLeg 147.210670 -0.000000 -0.000000
RightFoot 13.743117 -3.883807 14.442212
RightToeBase -5.546540 -0.000000 0.000000
529
root 7.518530 36.523135 2.756470 -18.434351 -60.765907 -25.795613
Spine 52.395235 -4.950653 10.487767
Head -11.699470 17.732888 -1.540940
LeftShoulder 10.778750 6.348154 19.790275
LeftArm 71.018131 38.676833 -52.948276
LeftForeArm -12.411064 0.000000 34.250504
LeftHand -9.949629 -0.000000 -10.651650
LeftHandThumb1 -26.253704 0.000000 33.147579
RightShoulder -5.595540 -43.019682 -2.039972
RightArm 74.728174 -9.346560 37.982632
RightForeArm 54.850823 -0.000000 26.510980
RightHand -0.177013 -0.000000 26.968430
RightHandThumb1 -24.326973 -0.000000 -32.862282
LeftUpLeg 38.832647 16.000548 23.712773
LeftLeg 22.137450 -0.000000 -0.000000
LeftFoot -19.166614 -2.407689 -1.820516
LeftToeBase 6.609520 -0.000000 -0.000000
RightUpLeg -84.189812 -8.416788 18.740449
RightLeg 146.899480 -0.000000 -0.000000
RightFoot 14.051844 -3.649310 14.424867
RightToeBase -6.026270 -0.000000 0.000000
530
root 7.511098 36.532279 2.756270 -18.145906 -60.979840 -26.158684
Spine 52.484731 -5.038964 10.603595
Head -11.627272 17.711387 -1.473999
LeftShoulder 10.807202 6.414318 19.882363
LeftArm 71.136121 38.497527 -52.944812
LeftForeArm -12.142116 -0.000000 34.050099
LeftHand -9.681973 -0.000000 -10.680698
LeftHandThumb1 -26.253704 0.000000 33.147579
RightShoulder -5.624648 -43.056443 -1.925975
RightArm 74.755473 -9.206050 38.163064
RightForeArm 54.318896 -0.000000 26.728270
RightHand 0.106181 -0.000000 26.339774
RightHandThumb1 -24.326973 -0.000000 -32.862282
LeftUpLeg 38.945199 16.008462 23.881589
LeftLeg 22.102645 -0.000000 -0.000000
LeftFoot -19.125780 -2.334268 -1.826904
LeftToeBase 6.723707 -0.000000 -0.000000
RightUpLeg -84.012127 -8.374000 18.734793
RightLeg 146.563602 -0.000000 -0.000000
RightFoot 14.348199 -3.368373 14.335728
RightToeBase -5.945297 -0.000000 0.000000
531
root 7.504342 36.541461 2.756013 -17.866149 -61.187711 -26.488842
Spine 52.560022 -5.129542 10.668107
Head -11.579951 17.734409 -1.384318
LeftShoulder 10.798544 6.480049 19.997063
LeftArm 71.265330 38.320980 -52.979706
LeftForeArm -12.040794 0.000000 33.813459
LeftHand -9.453794 0.000000 -10.879800
LeftHandThumb1 -26.253704 0.000000 33.147579
RightShoulder -5.635039 -43.052688 -1.849918
RightArm 74.802064 -9.101971 38.303590
RightForeArm 53.832510 -0.000000 26.923807
RightHand 0.359816 -0.000000 25.743343
RightHandThumb1 -24.326973 -0.000000 -32.862282
LeftUpLeg 39.050989 16.066234 24.071096
LeftLeg 22.058546 -0.000000 -0.000000
LeftFoot -19.087004 -2.299961 -1.873617
LeftToeBase 6.825065 -0.000000 -0.000000
RightUpLeg -83.838405 -8.336285 18.713631
RightLeg 146.201888 -0.000000 -0.000000
RightFoot 14.611115 -3.183954 14.332594
RightToeBase -6.320470 -0.000000 0.000000
532
root 7.498905 36.552246 2.756447 -17.573673 -61.387389 -26.829377
Spine 52.635918 -5.229179 10.732782
Head -11.541278 17.735773 -1.294337
LeftShoulder 10.792249 6.440524 20.122653
LeftArm 71.295344 38.156196 -53.090405
LeftForeArm -11.793804 0.000000 33.575304
LeftHand -9.289139 -0.000000 -11.082685
LeftHandThumb1 -26.253704 0.000000 33.147579
RightShoulder -5.629961 -43.066883 -1.803976
RightArm 74.885908 -8.969234 38.425381
RightForeArm 53.505370 -0.000000 27.065882
RightHand 0.683745 -0.000000 25.270292
RightHandThumb1 -24.326973 -0.000000 -32.862282
LeftUpLeg 39.164878 16.129672 24.269629
LeftLeg 21.994045 -0.000000 -0.000000
LeftFoot -19.051709 -2.273159 -1.943496
LeftToeBase 6.954096 -0.000000 -0.000000
RightUpLeg -83.652550 -8.323124 18.670754
RightLeg 145.823362 -0.000000 -0.000000
RightFoot 14.814318 -3.087813 14.430664
RightToeBase -6.058552 -0.000000 0.000000
533
root 7.495379 36.562635 2.761946 -17.361346 -61.543524 -27.075531
Spine 52.707225 -5.334995 10.754792
Head -11.542303 17.702813 -1.185065
LeftShoulder 10.780011 6.319239 20.246641
LeftArm 71.349578 38.050034 -53.134696
LeftForeArm -11.819034 -0.000000 33.374918
LeftHand -9.262992 -0.000000 -11.298100
LeftHandThumb1 -26.253704 0.000000 33.147579
RightShoulder -5.643762 -43.041196 -1.751004
RightArm 74.958703 -8.853751 38.543915
RightForeArm 53.531610 -0.000000 27.165247
RightHand 0.886993 0.000000 24.844825
RightHandThumb1 -24.326973 -0.000000 -32.862282
LeftUpLeg 39.276198 16.190325 24.405440
LeftLeg 21.907654 -0.000000 -0.000000
LeftFoot -19.022143 -2.239357 -1.995827
LeftToeBase 7.104450 -0.000000 -0.000000
RightUpLeg -83.471433 -8.371072 18.546704
RightLeg 145.450303 -0.000000 -0.000000
RightFoot 14.980984 -3.185567 14.645754
RightToeBase -6.613897 -0.000000 0.000000
534
root 7.488640 36.573756 2.777545 -17.257177 -61.750689 -27.243393
Spine 52.799639 -5.395099 10.760867
Head -11.481728 17.663438 -1.082791
LeftShoulder 10.747065 6.172320 20.349268
LeftArm 71.287707 37.948984 -53.332908
LeftForeArm -11.468822 -0.000000 33.280348
LeftHand -9.429177 0.000000 -11.300544
LeftHandThumb1 -26.253704 0.000000 33.147579
RightShoulder -5.609353 -43.027217 -1.770263
RightArm 75.033213 -8.736415 38.720231
RightForeArm 53.744439 0.000000 27.189392
RightHand 1.011617 -0.000000 24.903752
RightHandThumb1 -24.326973 -0.000000 -32.862282
LeftUpLeg 39.509237 16.276487 24.516327
LeftLeg 21.734254 -0.000000 -0.000000
LeftFoot -18.933842 -2.198283 -2.046212
LeftToeBase 7.140075 -0.000000 -0.000000
RightUpLeg -83.214137 -8.436643 18.295690
RightLeg 145.097987 -0.000000 -0.000000
RightFoot 15.066989 -3.143683 14.598437
RightToeBase -6.510429 -0.000000 0.000000
535
root 7.492697 36.583590 2.781453 -16.985462 -61.930592 -27.490838
Spine 52.816126 -5.464706 10.800365
Head -11.468194 17.617481 -0.980799
LeftShoulder 10.706666 6.015870 20.485543
LeftArm 71.257622 37.872382 -53.497487
LeftForeArm -11.602259 -0.000000 33.145838
LeftHand -9.251850 -0.000000 -11.380455
LeftHandThumb1 -26.253704 0.000000 33.147579
RightShoulder -5.507476 -42.951969 -1.831491
RightArm 75.048410 -8.628578 38.869824
RightForeArm 54.149469 -0.000000 27.231641
RightHand 1.146311 0.000000 24.810905
RightHandThumb1 -24.326973 -0.000000 -32.862282
LeftUpLeg 39.562791 16.341257 24.590114
LeftLeg 21.629293 -0.000000 -0.000000
LeftFoot -18.887169 -2.130351 -2.124006
LeftToeBase 7.211861 -0.000000 -0.000000
RightUpLeg -83.005157 -8.489788 18.089062
RightLeg 144.697200 -0.000000 -0.000000
RightFoot 14.967815 -3.165134 14.652800
RightToeBase -6.162525 -0.000000 0.000000
536
root 7.498167 36.591023 2.785655 -16.688815 -62.096099 -27.712126
Spine 52.773860 -5.506424 10.864163
Head -11.442629 17.575113 -0.894277
LeftShoulder 10.686964 5.876634 20.624232
LeftArm 71.200125 37.765741 -53.680950
LeftForeArm -11.634682 -0.000000 33.159833
LeftHand -9.291046 -0.000000 -11.217450
LeftHandThumb1 -26.253704 0.000000 33.147579
RightShoulder -5.446872 -42.851441 -1.869441
RightArm 75.026757 -8.539045 39.016331
RightForeArm 54.423470 0.000000 27.279670
RightHand 1.312393 0.000000 24.554490
RightHandThumb1 -24.326973 -0.000000 -32.862282
LeftUpLeg 39.548301 16.402804 24.618234
LeftLeg 21.548726 -0.000000 -0.000000
LeftFoot -18.852109 -2.054469 -2.213101
LeftToeBase 7.276679 -0.000000 -0.000000
RightUpLeg -82.842824 -8.530032 17.863891
RightLeg 144.283293 -0.000000 -0.000000
RightFoot 14.897321 -3.148247 14.441911
RightToeBase -6.210117 -0.000000 0.000000
537
root 7.505276 36.596277 2.787602 -16.279484 -62.247031 -27.982646
Spine 52.648676 -5.541280 10.970856
Head -11.423665 17.505954 -0.841817
LeftShoulder 10.683768 5.762394 20.729279
LeftArm 71.119963 37.633192 -53.745854
LeftForeArm -11.440718 -0.000000 33.404261
LeftHand -9.479377 -0.000000 -10.772885
LeftHandThumb1 -26.253704 0.000000 33.147579
RightShoulder -5.414632 -42.745894 -1.879624
RightArm 74.957765 -8.436366 39.211571
RightForeArm 54.445887 -0.000000 27.431488
RightHand 1.757395 -0.000000 24.267033
RightHandThumb1 -24.326973 -0.000000 -32.862282
LeftUpLeg 39.435855 16.488274 24.654741
LeftLeg 21.516953 -0.000000 -0.000000
LeftFoot -18.834876 -1.989114 -2.265377
LeftToeBase 7.252316 -0.000000 -0.000000
RightUpLeg -82.731216 -8.576831 17.632214
RightLeg 143.858801 -0.000000 -0.000000
RightFoot 14.815772 -3.110561 14.183549
RightToeBase -6.263105 -0.000000 0.000000
